<svg width="480" height="228" viewBox="0 0 480 228" fill="none" xmlns="http://www.w3.org/2000/svg">
<path d="M110.008 140.08C108.536 140.08 107.32 139.76 106.36 139.12C105.4 138.48 104.92 137.616 104.92 136.528C104.92 135.472 105.272 134.608 105.976 133.936C106.68 133.232 107.528 132.704 108.52 132.352C109.544 132 110.504 131.824 111.4 131.824C112.872 131.824 114.088 132.144 115.048 132.784C116.008 133.392 116.488 134.256 116.488 135.376C116.488 136.304 116.184 137.136 115.576 137.872C114.968 138.576 114.168 139.12 113.176 139.504C112.216 139.888 111.16 140.08 110.008 140.08ZM107.128 173.2C105.08 173.2 103.624 172.688 102.76 171.664C101.896 170.64 101.464 169.168 101.464 167.248C101.464 166.544 101.56 165.568 101.752 164.32C101.944 163.04 102.2 161.632 102.52 160.096C102.84 158.528 103.176 156.944 103.528 155.344C103.88 153.744 104.216 152.24 104.536 150.832L101.848 146.8C103.544 145.776 105.16 144.928 106.696 144.256C108.232 143.552 109.768 143.2 111.304 143.2C112.648 143.2 113.576 143.488 114.088 144.064C114.632 144.64 114.904 145.536 114.904 146.752C114.904 147.232 114.776 148.016 114.52 149.104C114.296 150.192 114.008 151.472 113.656 152.944C113.304 154.416 112.952 155.968 112.6 157.6C112.248 159.2 111.944 160.784 111.688 162.352C111.464 163.888 111.352 165.264 111.352 166.48C111.352 167.44 111.464 168.304 111.688 169.072C111.944 169.808 112.328 170.4 112.84 170.848C111.048 172.416 109.144 173.2 107.128 173.2Z" fill="#A2A2A2"/>
<path d="M137.243 173.2C134.235 173.2 131.835 172.96 130.043 172.48C128.283 172.032 127.019 171.408 126.251 170.608C125.483 169.808 125.099 168.928 125.099 167.968C125.099 167.232 125.291 166.384 125.675 165.424C126.091 164.464 126.683 163.552 127.451 162.688C127.995 163.424 128.715 164.112 129.611 164.752C130.539 165.36 131.547 165.856 132.635 166.24C133.723 166.592 134.779 166.768 135.803 166.768C136.923 166.768 137.931 166.512 138.827 166C139.723 165.456 140.315 164.544 140.603 163.264C135.675 162.688 132.139 161.6 129.995 160C127.851 158.368 126.779 156.112 126.779 153.232C126.779 151.408 127.211 149.856 128.075 148.576C128.939 147.296 130.091 146.272 131.531 145.504C133.003 144.704 134.667 144.128 136.523 143.776C138.411 143.392 140.363 143.2 142.379 143.2C144.267 143.2 145.947 143.456 147.419 143.968C148.891 144.448 150.043 145.104 150.875 145.936C151.707 146.768 152.123 147.728 152.123 148.816C152.123 150.352 151.563 151.52 150.443 152.32C149.355 153.12 148.107 153.52 146.699 153.52C145.739 153.52 144.731 153.2 143.675 152.56C142.619 151.92 141.771 150.928 141.131 149.584C139.947 149.936 139.003 150.448 138.299 151.12C137.595 151.76 136.971 152.688 136.427 153.904C140.075 154.448 142.971 155.136 145.115 155.968C147.259 156.8 148.795 157.856 149.723 159.136C150.683 160.384 151.163 161.936 151.163 163.792C151.163 165.264 150.827 166.544 150.155 167.632C149.515 168.72 148.667 169.616 147.611 170.32C146.555 171.024 145.403 171.584 144.155 172C142.907 172.448 141.675 172.752 140.459 172.912C139.243 173.104 138.171 173.2 137.243 173.2Z" fill="#A2A2A2"/>
<path d="M187.657 222.2C180.318 222.2 173.705 220.707 167.817 217.72C162.014 214.648 157.406 209.955 153.993 203.64C150.58 197.325 148.873 189.347 148.873 179.704C148.873 175.011 149.684 170.189 151.305 165.24C152.926 160.291 155.273 155.512 158.345 150.904C161.502 146.211 165.385 142.029 169.993 138.36C174.686 134.605 180.105 131.661 186.249 129.528C192.393 127.309 199.22 126.2 206.729 126.2C211.337 126.2 215.476 126.84 219.145 128.12C222.9 129.4 225.844 131.32 227.977 133.88C230.11 136.355 231.177 139.469 231.177 143.224C231.177 146.893 230.324 149.965 228.617 152.44C226.996 154.915 224.82 156.792 222.089 158.072C219.444 159.267 216.542 159.864 213.385 159.864C209.63 159.864 205.961 158.925 202.377 157.048C198.793 155.171 195.892 152.397 193.673 148.728C190.686 150.179 187.87 152.653 185.225 156.152C182.665 159.565 180.617 163.576 179.081 168.184C177.545 172.792 176.777 177.571 176.777 182.52C176.777 186.019 177.204 189.304 178.057 192.376C178.996 195.363 180.404 197.795 182.281 199.672C184.158 201.549 186.548 202.488 189.449 202.488C191.838 202.488 194.142 201.592 196.361 199.8C198.58 197.923 200.414 195.448 201.865 192.376C203.316 189.304 204.041 185.848 204.041 182.008C209.246 182.008 213.598 182.264 217.097 182.776C220.681 183.203 223.412 184.184 225.289 185.72C227.166 187.256 228.105 189.645 228.105 192.888C228.105 196.131 227.166 199.459 225.289 202.872C223.412 206.285 220.681 209.485 217.097 212.472C213.598 215.373 209.332 217.72 204.297 219.512C199.348 221.304 193.801 222.2 187.657 222.2Z" fill="#A2A2A2"/>
<path d="M242.234 173.2C239.418 173.2 236.986 172.672 234.938 171.616C232.922 170.528 231.37 169.04 230.282 167.152C229.194 165.264 228.65 163.072 228.65 160.576C228.65 157.12 229.402 154.096 230.906 151.504C232.442 148.88 234.538 146.848 237.194 145.408C239.85 143.936 242.874 143.2 246.266 143.2C246.81 143.2 247.354 143.232 247.898 143.296C248.474 143.328 249.082 143.424 249.722 143.584C249.882 144.032 250.01 144.576 250.106 145.216C250.202 145.824 250.266 146.48 250.298 147.184C250.586 147.088 250.89 147.008 251.21 146.944C251.562 146.88 251.93 146.848 252.314 146.848C253.434 146.848 254.49 147.152 255.482 147.76C256.474 148.336 257.29 149.248 257.93 150.496C258.57 151.744 258.89 153.328 258.89 155.248C258.89 158.096 258.41 160.64 257.45 162.88C256.522 165.088 255.258 166.96 253.658 168.496C252.058 170.032 250.266 171.2 248.282 172C246.33 172.8 244.314 173.2 242.234 173.2ZM243.722 167.296C244.458 167.296 245.226 167.12 246.026 166.768C246.826 166.416 247.61 165.776 248.378 164.848C249.146 163.92 249.786 162.608 250.298 160.912C248.922 160.048 247.93 158.992 247.322 157.744C246.714 156.464 246.41 155.056 246.41 153.52C246.41 153.072 246.49 152.496 246.65 151.792C246.81 151.088 247.082 150.368 247.466 149.632C247.882 148.896 248.442 148.288 249.146 147.808C246.938 148.256 245.13 148.928 243.722 149.824C242.314 150.72 241.21 151.76 240.41 152.944C239.642 154.096 239.098 155.296 238.778 156.544C238.49 157.76 238.346 158.928 238.346 160.048C238.346 161.328 238.554 162.528 238.97 163.648C239.386 164.736 239.994 165.616 240.794 166.288C241.594 166.96 242.57 167.296 243.722 167.296Z" fill="#A2A2A2"/>
<path d="M242.234 220.2C239.418 220.2 236.986 219.672 234.938 218.616C232.922 217.528 231.37 216.04 230.282 214.152C229.194 212.264 228.65 210.072 228.65 207.576C228.65 204.12 229.402 201.096 230.906 198.504C232.442 195.88 234.538 193.848 237.194 192.408C239.85 190.936 242.874 190.2 246.266 190.2C246.81 190.2 247.354 190.232 247.898 190.296C248.474 190.328 249.082 190.424 249.722 190.584C249.882 191.032 250.01 191.576 250.106 192.216C250.202 192.824 250.266 193.48 250.298 194.184C250.586 194.088 250.89 194.008 251.21 193.944C251.562 193.88 251.93 193.848 252.314 193.848C253.434 193.848 254.49 194.152 255.482 194.76C256.474 195.336 257.29 196.248 257.93 197.496C258.57 198.744 258.89 200.328 258.89 202.248C258.89 205.096 258.41 207.64 257.45 209.88C256.522 212.088 255.258 213.96 253.658 215.496C252.058 217.032 250.266 218.2 248.282 219C246.33 219.8 244.314 220.2 242.234 220.2ZM243.722 214.296C244.458 214.296 245.226 214.12 246.026 213.768C246.826 213.416 247.61 212.776 248.378 211.848C249.146 210.92 249.786 209.608 250.298 207.912C248.922 207.048 247.93 205.992 247.322 204.744C246.714 203.464 246.41 202.056 246.41 200.52C246.41 200.072 246.49 199.496 246.65 198.792C246.81 198.088 247.082 197.368 247.466 196.632C247.882 195.896 248.442 195.288 249.146 194.808C246.938 195.256 245.13 195.928 243.722 196.824C242.314 197.72 241.21 198.76 240.41 199.944C239.642 201.096 239.098 202.296 238.778 203.544C238.49 204.76 238.346 205.928 238.346 207.048C238.346 208.328 238.554 209.528 238.97 210.648C239.386 211.736 239.994 212.616 240.794 213.288C241.594 213.96 242.57 214.296 243.722 214.296Z" fill="#A2A2A2"/>
<path d="M280.755 173.2C277.555 173.2 275.251 172.704 273.843 171.712C272.467 170.688 271.779 169.024 271.779 166.72C271.779 164.608 271.811 162.352 271.875 159.952C271.939 157.52 271.971 155.376 271.971 153.52C271.971 151.344 271.715 149.616 271.203 148.336C270.723 147.024 270.115 146 269.379 145.264C271.043 143.888 272.867 143.2 274.851 143.2C276.643 143.2 278.003 143.728 278.931 144.784C279.859 145.808 280.483 147.216 280.803 149.008C281.155 150.8 281.331 152.8 281.331 155.008C281.331 156.192 281.315 157.536 281.283 159.04C281.283 160.512 281.267 161.984 281.235 163.456C281.203 164.896 281.155 166.192 281.091 167.344H282.723C283.427 165.84 284.195 164.192 285.027 162.4C285.859 160.576 286.659 158.736 287.427 156.88C288.195 154.992 288.819 153.232 289.299 151.6C289.779 149.936 290.019 148.544 290.019 147.424C290.019 146.976 289.971 146.576 289.875 146.224C289.811 145.872 289.715 145.552 289.587 145.264C290.803 144.56 291.955 144.048 293.043 143.728C294.163 143.376 295.155 143.2 296.019 143.2C297.395 143.2 298.355 143.616 298.899 144.448C299.475 145.28 299.763 146.368 299.763 147.712C299.763 148.864 299.507 150.24 298.995 151.84C298.515 153.44 297.907 155.12 297.171 156.88C296.435 158.608 295.699 160.272 294.963 161.872C294.227 163.44 293.635 164.784 293.187 165.904L293.811 168.688C292.947 169.456 291.795 170.192 290.355 170.896C288.947 171.568 287.395 172.112 285.699 172.528C284.035 172.976 282.387 173.2 280.755 173.2Z" fill="#A2A2A2"/>
<path d="M322.842 173.2C319.866 173.2 317.354 172.672 315.306 171.616C313.258 170.56 311.706 169.088 310.65 167.2C309.626 165.28 309.114 163.072 309.114 160.576C309.114 157.984 309.578 155.632 310.506 153.52C311.466 151.376 312.794 149.536 314.49 148C316.186 146.464 318.154 145.28 320.394 144.448C322.666 143.616 325.114 143.2 327.738 143.2C330.842 143.2 333.13 143.888 334.602 145.264C336.074 146.64 336.81 148.368 336.81 150.448C336.81 152.24 336.218 153.936 335.034 155.536C333.882 157.104 332.01 158.384 329.418 159.376C326.826 160.336 323.37 160.832 319.05 160.864C319.146 162.912 319.61 164.528 320.442 165.712C321.306 166.864 322.378 167.44 323.658 167.44C324.298 167.44 324.97 167.296 325.674 167.008C326.378 166.688 326.97 166.144 327.45 165.376C327.93 164.576 328.17 163.488 328.17 162.112C330.346 162.112 332.058 162.352 333.306 162.832C334.554 163.312 335.178 164.176 335.178 165.424C335.178 166.576 334.682 167.76 333.69 168.976C332.698 170.16 331.274 171.168 329.418 172C327.594 172.8 325.402 173.2 322.842 173.2ZM319.482 157.024C321.818 156.832 323.69 156.4 325.098 155.728C326.506 155.056 327.53 154.288 328.17 153.424C328.81 152.56 329.13 151.76 329.13 151.024C329.13 150.384 328.938 149.856 328.554 149.44C328.17 149.024 327.626 148.816 326.922 148.816C325.77 148.816 324.698 149.216 323.706 150.016C322.714 150.816 321.85 151.856 321.114 153.136C320.41 154.384 319.866 155.68 319.482 157.024Z" fill="#A2A2A2"/>
<path d="M368.537 220.2C365.561 220.2 363.049 219.672 361.001 218.616C358.953 217.56 357.401 216.088 356.345 214.2C355.321 212.28 354.809 210.072 354.809 207.576C354.809 204.984 355.273 202.632 356.201 200.52C357.161 198.376 358.489 196.536 360.185 195C361.881 193.464 363.849 192.28 366.089 191.448C368.361 190.616 370.809 190.2 373.433 190.2C376.537 190.2 378.825 190.888 380.297 192.264C381.769 193.64 382.505 195.368 382.505 197.448C382.505 199.24 381.913 200.936 380.729 202.536C379.577 204.104 377.705 205.384 375.113 206.376C372.521 207.336 369.065 207.832 364.745 207.864C364.841 209.912 365.305 211.528 366.137 212.712C367.001 213.864 368.073 214.44 369.353 214.44C369.993 214.44 370.665 214.296 371.369 214.008C372.073 213.688 372.665 213.144 373.145 212.376C373.625 211.576 373.865 210.488 373.865 209.112C376.041 209.112 377.753 209.352 379.001 209.832C380.249 210.312 380.873 211.176 380.873 212.424C380.873 213.576 380.377 214.76 379.385 215.976C378.393 217.16 376.969 218.168 375.113 219C373.289 219.8 371.097 220.2 368.537 220.2ZM365.177 204.024C367.513 203.832 369.385 203.4 370.793 202.728C372.201 202.056 373.225 201.288 373.865 200.424C374.505 199.56 374.825 198.76 374.825 198.024C374.825 197.384 374.633 196.856 374.249 196.44C373.865 196.024 373.321 195.816 372.617 195.816C371.465 195.816 370.393 196.216 369.401 197.016C368.409 197.816 367.545 198.856 366.809 200.136C366.105 201.384 365.561 202.68 365.177 204.024Z" fill="#A2A2A2"/>
<path d="M438.048 220.2C436 220.2 434.544 219.592 433.68 218.376C432.816 217.16 432.384 215.304 432.384 212.808C432.384 212.104 432.464 211.112 432.624 209.832C432.784 208.52 432.992 207.064 433.248 205.464C433.536 203.864 433.808 202.28 434.064 200.712C433.392 200.84 432.736 200.984 432.096 201.144C431.488 201.304 430.912 201.48 430.368 201.672C430.24 201.192 430.144 200.712 430.08 200.232C430.048 199.752 430.032 199.4 430.032 199.176C430.032 197.512 430.512 196.312 431.472 195.576C432.464 194.808 433.648 194.424 435.024 194.424C435.024 193.688 434.928 192.872 434.736 191.976C434.544 191.08 434.208 190.088 433.728 189C435.072 188.008 436.416 187.176 437.76 186.504C439.104 185.832 440.592 185.496 442.224 185.496C443.632 185.496 444.608 185.768 445.152 186.312C445.696 186.824 445.968 187.688 445.968 188.904C445.968 189.512 445.904 190.232 445.776 191.064C445.648 191.896 445.488 192.808 445.296 193.8C446 193.704 446.672 193.592 447.312 193.464C447.952 193.304 448.576 193.144 449.184 192.984C449.312 193.336 449.392 193.704 449.424 194.088C449.488 194.44 449.52 194.792 449.52 195.144C449.52 196.424 449.12 197.544 448.32 198.504C447.552 199.432 446.352 199.896 444.72 199.896H444C443.552 201.944 443.152 204.04 442.8 206.184C442.448 208.328 442.272 210.328 442.272 212.184C442.272 213.432 442.384 214.552 442.608 215.544C442.864 216.504 443.248 217.272 443.76 217.848C441.968 219.416 440.064 220.2 438.048 220.2Z" fill="#A2A2A2"/>
<path d="M275.475 220.2C273.459 220.2 272.019 219.688 271.155 218.664C270.291 217.64 269.859 216.168 269.859 214.248C269.859 213.576 269.955 212.552 270.147 211.176C270.339 209.768 270.579 208.216 270.867 206.52C271.187 204.792 271.523 203.064 271.875 201.336C272.227 199.608 272.563 198.072 272.883 196.728L270.387 192.888C271.699 192.152 273.107 191.528 274.611 191.016C276.147 190.472 277.699 190.2 279.267 190.2C280.611 190.2 281.603 190.536 282.243 191.208C282.883 191.848 283.203 192.728 283.203 193.848C283.203 194.68 283.091 195.544 282.867 196.44C282.643 197.336 282.387 198.104 282.099 198.744L282.579 198.984C284.467 195.752 286.531 193.48 288.771 192.168C291.011 190.856 293.299 190.2 295.635 190.2C297.587 190.2 299.043 190.68 300.003 191.64C300.963 192.568 301.443 194.024 301.443 196.008C301.443 197.736 301.203 199.576 300.723 201.528C300.275 203.448 299.811 205.432 299.331 207.48C298.851 209.496 298.611 211.496 298.611 213.48C298.611 215.464 298.947 216.92 299.619 217.848C297.923 219.416 296.163 220.2 294.339 220.2C292.323 220.2 290.883 219.688 290.019 218.664C289.155 217.64 288.723 216.168 288.723 214.248C288.723 213.192 288.867 212.024 289.155 210.744C289.443 209.432 289.779 208.104 290.163 206.76C290.547 205.416 290.883 204.152 291.171 202.968C291.459 201.784 291.603 200.76 291.603 199.896C291.603 199.224 291.475 198.696 291.219 198.312C290.995 197.928 290.579 197.736 289.971 197.736C289.107 197.736 288.099 198.12 286.947 198.888C285.795 199.656 284.659 200.744 283.539 202.152C282.451 203.528 281.539 205.176 280.803 207.096C280.099 209.016 279.747 211.144 279.747 213.48C279.747 215.464 280.083 216.92 280.755 217.848C279.059 219.416 277.299 220.2 275.475 220.2Z" fill="#A2A2A2"/>
<path d="M318.19 220.2C316.174 220.2 314.734 219.688 313.87 218.664C313.006 217.64 312.574 216.168 312.574 214.248C312.574 213.576 312.67 212.552 312.862 211.176C313.054 209.768 313.294 208.216 313.582 206.52C313.902 204.792 314.238 203.064 314.59 201.336C314.942 199.608 315.278 198.072 315.598 196.728L313.102 192.888C314.414 192.152 315.822 191.528 317.326 191.016C318.862 190.472 320.414 190.2 321.982 190.2C323.326 190.2 324.318 190.536 324.958 191.208C325.598 191.848 325.918 192.728 325.918 193.848C325.918 194.68 325.806 195.544 325.582 196.44C325.358 197.336 325.102 198.104 324.814 198.744L325.294 198.984C327.182 195.752 329.246 193.48 331.486 192.168C333.726 190.856 336.014 190.2 338.35 190.2C340.302 190.2 341.758 190.68 342.718 191.64C343.678 192.568 344.158 194.024 344.158 196.008C344.158 197.736 343.918 199.576 343.438 201.528C342.99 203.448 342.526 205.432 342.046 207.48C341.566 209.496 341.326 211.496 341.326 213.48C341.326 215.464 341.662 216.92 342.334 217.848C340.638 219.416 338.878 220.2 337.054 220.2C335.038 220.2 333.598 219.688 332.734 218.664C331.87 217.64 331.438 216.168 331.438 214.248C331.438 213.192 331.582 212.024 331.87 210.744C332.158 209.432 332.494 208.104 332.878 206.76C333.262 205.416 333.598 204.152 333.886 202.968C334.174 201.784 334.318 200.76 334.318 199.896C334.318 199.224 334.19 198.696 333.934 198.312C333.71 197.928 333.294 197.736 332.686 197.736C331.822 197.736 330.814 198.12 329.662 198.888C328.51 199.656 327.374 200.744 326.254 202.152C325.166 203.528 324.254 205.176 323.518 207.096C322.814 209.016 322.462 211.144 322.462 213.48C322.462 215.464 322.798 216.92 323.47 217.848C321.774 219.416 320.014 220.2 318.19 220.2Z" fill="#A2A2A2"/>
<path d="M406.141 220.2C403.357 220.2 400.941 219.672 398.893 218.616C396.877 217.528 395.309 216.04 394.189 214.152C393.101 212.264 392.557 210.072 392.557 207.576C392.557 204.984 393.021 202.632 393.949 200.52C394.877 198.376 396.189 196.536 397.885 195C399.581 193.464 401.549 192.28 403.789 191.448C406.061 190.616 408.509 190.2 411.133 190.2C413.981 190.2 416.173 190.744 417.709 191.832C419.277 192.888 420.061 194.216 420.061 195.816C420.061 197.352 419.501 198.52 418.381 199.32C417.293 200.12 416.045 200.52 414.637 200.52C413.677 200.52 412.669 200.2 411.613 199.56C410.557 198.92 409.709 197.928 409.069 196.584C407.661 197.16 406.461 198.056 405.469 199.272C404.509 200.456 403.773 201.784 403.261 203.256C402.781 204.696 402.541 206.12 402.541 207.528C402.541 209.416 402.941 211.048 403.741 212.424C404.541 213.768 405.725 214.44 407.293 214.44C408.381 214.44 409.373 214.024 410.269 213.192C411.165 212.328 411.613 210.968 411.613 209.112C413.789 209.112 415.501 209.352 416.749 209.832C417.997 210.312 418.621 211.176 418.621 212.424C418.621 213.576 418.109 214.76 417.085 215.976C416.061 217.16 414.621 218.168 412.765 219C410.909 219.8 408.701 220.2 406.141 220.2Z" fill="#A2A2A2"/>
<path d="M352.766 173.2C350.814 173.2 349.422 172.688 348.59 171.664C347.758 170.64 347.342 169.168 347.342 167.248C347.342 166.576 347.438 165.552 347.63 164.176C347.822 162.768 348.062 161.216 348.35 159.52C348.67 157.792 349.006 156.064 349.358 154.336C349.71 152.608 350.046 151.072 350.366 149.728L347.87 145.888C349.534 145.152 351.07 144.528 352.478 144.016C353.918 143.472 355.198 143.2 356.318 143.2C357.15 143.2 357.758 143.488 358.142 144.064C358.526 144.64 358.718 145.376 358.718 146.272C358.718 147.296 358.542 148.448 358.19 149.728C357.838 150.976 357.486 152.16 357.134 153.28L357.614 153.52C358.734 150.224 359.998 147.68 361.406 145.888C362.846 144.096 364.446 143.2 366.206 143.2C367.358 143.2 368.286 143.456 368.99 143.968C369.694 144.448 370.206 145.056 370.526 145.792C370.878 146.496 371.054 147.184 371.054 147.856C371.054 148.912 370.782 149.936 370.238 150.928C369.726 151.888 368.894 152.688 367.742 153.328C366.59 153.936 365.07 154.24 363.182 154.24C362.446 154.24 361.726 154.4 361.022 154.72C360.318 155.04 359.678 155.648 359.102 156.544C358.526 157.408 358.062 158.64 357.71 160.24C357.39 161.84 357.23 163.92 357.23 166.48C357.23 168.464 357.566 169.92 358.238 170.848C356.254 172.416 354.43 173.2 352.766 173.2Z" fill="#A2A2A2"/>
<path d="M41.344 175.2C30.7627 175.2 22.4853 173.323 16.512 169.568C10.624 165.728 7.68 160.437 7.68 153.696C7.68 150.197 8.23467 144.949 9.344 137.952C10.4533 130.955 12.5867 119.008 15.744 102.112L8.96 88.416C18.6027 82.1867 27.392 79.072 35.328 79.072C41.8987 79.072 45.184 83.0827 45.184 91.104C45.184 95.0293 43.392 107.403 39.808 128.224C38.6987 134.965 37.6747 141.365 36.736 147.424C35.7973 153.397 35.328 157.195 35.328 158.816C37.888 160.011 40.7467 160.608 43.904 160.608C49.7067 160.608 54.8693 159.029 59.392 155.872C64 152.629 67.584 148.149 70.144 142.432C72.704 136.629 73.984 130.101 73.984 122.848C73.984 114.315 71.9787 107.659 67.968 102.88C64.0427 98.1013 58.5813 95.712 51.584 95.712C49.28 95.712 46.8907 96.1813 44.416 97.12C42.0267 97.9733 39.424 99.3387 36.608 101.216C36.1813 101.557 35.712 101.899 35.2 102.24C34.7733 102.496 34.3467 102.795 33.92 103.136L30.08 92.64C30.7627 92.0427 31.4453 91.488 32.128 90.976C32.896 90.3787 33.6213 89.7813 34.304 89.184C37.632 86.624 40.7467 84.6187 43.648 83.168C46.5493 81.7173 49.536 80.6933 52.608 80.096C55.7653 79.4133 59.3067 79.072 63.232 79.072C70.8267 79.072 77.568 80.736 83.456 84.064C89.344 87.3067 93.8667 91.9147 97.024 97.888C100.267 103.776 101.888 110.603 101.888 118.368C101.888 129.376 99.328 139.189 94.208 147.808C89.088 156.427 81.92 163.168 72.704 168.032C63.488 172.811 53.0347 175.2 41.344 175.2Z" fill="#A2A2A2"/>
</svg>
